<svg width="26" height="41" viewBox="0 0 26 41" fill="none" xmlns="http://www.w3.org/2000/svg">
<g id="bbb-logo-vector 1" clip-path="url(#clip0_145_946)">
<path id="Vector" d="M8.68265 18.6094C9.4982 19.2025 11.4259 20.4629 11.7966 20.9078C12.1673 21.3526 11.7966 21.9458 11.7966 21.9458L12.3897 22.1682C12.538 21.8716 13.3535 20.8336 13.8725 20.1664C14.3915 19.6474 14.7622 18.5353 14.7622 17.7939C14.8364 15.2731 11.5 14.0868 9.94305 12.6781C9.20164 12.0108 9.79476 11.566 9.79476 11.566L9.27578 11.1953C7.34811 13.4937 5.27216 16.2369 8.68265 18.6094ZM10.3879 10.3056C12.3156 12.0108 15.6519 13.7902 15.8743 14.9024C16.1709 16.3852 15.5036 17.2007 15.5036 17.2007L15.8743 17.4973C16.0968 17.2007 16.3192 16.9042 16.5416 16.6076C17.4313 15.4213 18.2468 14.2351 19.0624 13.0488C20.9901 10.3056 20.2487 7.71067 17.3572 5.63472C15.8743 4.59675 14.3915 3.41049 12.9087 2.37251C12.0931 1.6311 12.6121 0.296564 12.6121 0.296564L12.2414 0C12.2414 0 9.05335 3.85533 8.75679 5.4123C8.53437 6.89512 8.46023 8.60036 10.3879 10.3056ZM19.359 23.2061H5.27216L4.67903 24.8373H8.53437L9.27578 27.2098H15.5036L16.1709 24.8373H19.8779L19.359 23.2061ZM7.8671 34.5497C7.8671 33.5118 7.42225 32.9186 6.38428 32.6221C7.12569 32.2514 7.49639 31.5099 7.49639 30.6944C7.49639 29.1374 6.01357 28.6184 4.38247 28.6184H0.823697V36.9222H4.90145C6.45842 36.9222 7.8671 36.1808 7.8671 34.5497ZM2.60308 30.2495H4.38247C5.04974 30.2495 5.71701 30.3978 5.71701 31.1392C5.71701 31.8065 5.19802 32.0289 4.53075 32.0289H2.60308V30.2495ZM2.52894 35.3653V33.5118H4.67903C5.93943 33.5118 6.08771 33.8083 6.08771 34.4756C6.08771 35.1429 5.42044 35.3653 4.60489 35.3653H2.52894ZM25.2161 36.0325H25.0678L24.9195 36.4774C24.8454 36.6257 24.8454 36.6998 24.8454 36.774C24.8454 36.6998 24.7713 36.5515 24.7713 36.4774L24.623 36.0325H24.4747L24.4006 36.9964H24.4747V36.6257C24.4747 36.4774 24.4747 36.3291 24.4747 36.1808C24.4747 36.3291 24.5488 36.4033 24.5488 36.5515L24.6971 36.9964H24.7713L24.9195 36.5515C24.9937 36.4033 24.9937 36.3291 25.0678 36.1808C25.0678 36.3291 25.0678 36.4774 25.0678 36.6257V37.0705H25.2161V36.0325ZM16.6899 36.9222H20.7676C22.3246 36.9222 23.7333 36.1808 23.7333 34.5497C23.7333 33.5118 23.2884 32.9186 22.2505 32.6221C22.9919 32.2514 23.3626 31.5099 23.3626 30.6944C23.3626 29.1374 21.8798 28.6184 20.2487 28.6184H16.6899V36.9222ZM18.4693 30.2495H20.2487C20.9159 30.2495 21.5832 30.3978 21.5832 31.1392C21.5832 31.8065 21.0642 32.0289 20.3969 32.0289H18.4693V30.2495ZM18.3951 33.5859H20.5452C21.8056 33.5859 21.9539 33.8825 21.9539 34.5497C21.9539 35.217 21.2866 35.4394 20.4711 35.4394H18.3951V33.5859ZM24.0298 36.4774C23.8816 36.4033 23.8816 36.4033 23.8816 36.3291C23.8816 36.255 23.9557 36.1808 24.0298 36.1808C24.104 36.1808 24.1781 36.1808 24.1781 36.255V36.1808C24.104 36.1808 24.104 36.1067 23.9557 36.1067C23.8074 36.1067 23.6591 36.1808 23.6591 36.3291C23.6591 36.4774 23.7333 36.5515 23.8816 36.6257C24.0298 36.6998 24.0298 36.6998 24.0298 36.8481C24.0298 36.9222 23.9557 36.9964 23.8074 36.9964C23.7333 36.9964 23.6591 36.9964 23.585 36.9222V36.9964C23.6591 36.9964 23.7333 37.0705 23.8074 37.0705C24.0298 37.0705 24.104 36.9222 24.104 36.774C24.2523 36.6257 24.1781 36.4774 24.0298 36.4774ZM14.3915 32.6221C15.1329 32.2514 15.5036 31.5099 15.5036 30.6944C15.5036 29.1374 14.0208 28.6184 12.3897 28.6184H8.83093V36.9222H12.9087C14.4657 36.9222 15.8743 36.1808 15.8743 34.5497C15.8743 33.5118 15.4295 32.9186 14.3915 32.6221ZM10.5362 30.2495H12.3156C12.9828 30.2495 13.6501 30.3978 13.6501 31.1392C13.6501 31.8065 13.1311 32.0289 12.4638 32.0289H10.5362V30.2495ZM12.6121 35.3653H10.5362V33.5118H12.6863C13.9467 33.5118 14.0949 33.8083 14.0949 34.4756C14.0208 35.217 13.3535 35.3653 12.6121 35.3653ZM18.321 38.6275H16.5416V38.8499H17.3572V41H17.5796V38.8499H18.3951V38.6275H18.321ZM13.6501 40.7034C13.5018 40.7034 13.4277 40.6293 13.4277 40.481V39.443H13.8725V39.2948H13.4277V38.8499H13.2794V39.2948H12.9087V39.443H13.2794V40.481C13.2794 40.7034 13.4277 40.8517 13.7242 40.8517C13.7984 40.8517 13.9467 40.8517 14.0208 40.7776V40.6293C13.8725 40.7034 13.7242 40.7034 13.6501 40.7034ZM23.5109 40.7034C23.3626 40.7034 23.2143 40.6293 23.2143 40.481V39.3689H23.7333V39.1465H23.2143V38.6275H22.9919V39.1465H22.547V39.3689H22.9919V40.481C22.9919 40.7034 23.1402 40.9259 23.5109 40.9259C23.585 40.9259 23.7333 40.9259 23.8074 40.8517V40.6293C23.6591 40.7034 23.585 40.7034 23.5109 40.7034ZM20.9901 39.2206H20.7676V40.0362C20.7676 40.481 20.4711 40.7034 20.1004 40.7034C19.7297 40.7034 19.6555 40.4069 19.6555 40.1844V39.2206H19.4331V40.2586C19.4331 40.6293 19.5814 41 20.1745 41C20.4711 41 20.7676 40.8517 20.8418 40.6293C20.8418 40.6293 20.8418 40.7776 20.8418 40.9259H21.0642C21.0642 40.8517 21.0642 40.5552 21.0642 40.481V39.2206H20.9901ZM18.4693 39.5172C18.4693 39.5172 18.4693 39.3689 18.4693 39.2206H18.2468C18.2468 39.2948 18.2468 39.5913 18.2468 39.6655V40.8517H18.4693V39.962C18.4693 39.6655 18.6917 39.3689 19.0624 39.3689H19.1365V39.1465C19.0624 39.1465 19.0624 39.1465 18.9883 39.1465C18.84 39.1465 18.6175 39.2948 18.4693 39.5172ZM12.538 38.5533C12.4638 38.5533 12.3897 38.6275 12.3897 38.7016C12.3897 38.7758 12.4638 38.8499 12.538 38.8499C12.6121 38.8499 12.6863 38.7758 12.6863 38.7016C12.6863 38.6275 12.6121 38.5533 12.538 38.5533ZM15.2071 39.2206C14.9846 39.2206 14.7622 39.3689 14.6881 39.5172V38.2568H14.4657V40.7776H14.6881V40.0362C14.6881 39.5913 14.9105 39.3689 15.2071 39.3689C15.5036 39.3689 15.5778 39.5913 15.5778 39.8879V40.7776H15.8002V39.8879C15.8002 39.5913 15.726 39.2206 15.2071 39.2206ZM21.4349 39.5913C21.4349 39.443 21.6573 39.2948 21.8056 39.2948C22.028 39.2948 22.1763 39.3689 22.2505 39.5172L22.4729 39.3689C22.3246 39.1465 22.1022 39.0723 21.8056 39.0723C21.5091 39.0723 21.1383 39.2206 21.1383 39.5913C21.1383 40.2586 22.2505 39.8879 22.2505 40.4069C22.2505 40.6293 22.028 40.7034 21.8056 40.7034C21.5832 40.7034 21.3608 40.6293 21.2125 40.4069L20.9901 40.5552C21.1383 40.7776 21.4349 40.9259 21.7315 40.9259C22.1022 40.9259 22.3987 40.7776 22.3987 40.4069C22.547 39.7396 21.4349 40.0362 21.4349 39.5913ZM7.71881 40.7034C7.57053 40.7034 7.49639 40.6293 7.49639 40.481V39.3689H8.01538V39.1465H7.42225V38.6275H7.19983V39.1465H6.82912V39.3689H7.19983V40.481C7.19983 40.7034 7.34811 40.9259 7.64467 40.9259C7.71881 40.9259 7.8671 40.9259 7.94124 40.8517V40.6293C7.8671 40.7034 7.79296 40.7034 7.71881 40.7034ZM6.01357 39.443C6.01357 39.443 6.01357 39.2948 6.01357 39.1465H5.79115C5.79115 39.2206 5.79115 39.5172 5.79115 39.5913V40.7776H6.01357V39.8879C6.01357 39.5913 6.16185 39.2948 6.6067 39.2948H6.68084V39.0723C6.6067 39.0723 6.6067 39.0723 6.53256 39.0723C6.31013 39.1465 6.16185 39.2206 6.01357 39.443ZM11.3517 40.7034L10.6845 38.6275H10.3879L9.72062 40.7034L9.12749 38.6275H8.90507L9.64648 40.9259H9.94305L10.6103 38.8499L11.2776 40.9259H11.5741L12.3156 38.6275H12.0931L11.3517 40.7034ZM5.27216 39.7396C5.27216 39.2948 4.9756 39.1465 4.60489 39.1465C4.38247 39.1465 4.0859 39.2206 3.93762 39.3689L4.0859 39.5172C4.23419 39.3689 4.38247 39.2948 4.60489 39.2948C4.90145 39.2948 5.12388 39.443 5.12388 39.7396V39.8137H4.82731C4.45661 39.8137 3.86348 39.8879 3.86348 40.4069C3.86348 40.7776 4.16004 40.9259 4.45661 40.9259C4.75317 40.9259 4.90145 40.8517 5.04974 40.6293C5.04974 40.7034 5.04974 40.8517 5.04974 40.9259H5.27216C5.27216 40.7034 5.27216 40.5552 5.27216 40.1844V39.7396ZM5.12388 40.1103C5.12388 40.4069 4.9756 40.7034 4.53075 40.7034C4.30833 40.7034 4.16004 40.6293 4.16004 40.4069C4.16004 40.1103 4.53075 40.0362 4.90145 40.0362H5.12388V40.1103ZM1.04612 39.1465C1.04612 38.8499 1.34268 38.7016 1.63925 38.7016C1.86167 38.7016 2.0841 38.7758 2.15824 38.924L2.38066 38.7758C2.15824 38.5533 1.93581 38.4792 1.63925 38.4792C1.1944 38.4792 0.749556 38.7016 0.749556 39.1465C0.749556 40.0362 2.15824 39.6655 2.15824 40.3327C2.15824 40.6293 1.86167 40.7776 1.56511 40.7776C1.26854 40.7776 1.04612 40.6293 0.971979 40.481L0.675415 40.6293C0.897838 40.8517 1.1944 41 1.56511 41C2.00995 41 2.4548 40.7776 2.4548 40.3327C2.4548 39.443 1.04612 39.7396 1.04612 39.1465ZM3.34449 40.7034C3.19621 40.7034 3.12207 40.6293 3.12207 40.481V39.3689H3.64106V39.1465H3.04793V38.6275H2.82551V39.1465H2.4548V39.3689H2.82551V40.481C2.82551 40.7034 2.97379 40.9259 3.27035 40.9259C3.34449 40.9259 3.49277 40.9259 3.56692 40.8517V40.6293C3.49277 40.7034 3.41863 40.7034 3.34449 40.7034ZM12.4638 40.8517H12.6863V39.2948H12.4638V40.8517Z" fill="white"/>
</g>
<defs>
<clipPath id="clip0_145_946">
<rect width="24.6148" height="41" fill="white" transform="translate(0.675415)"/>
</clipPath>
</defs>
</svg>
