<svg width="139" height="42" viewBox="0 0 139 42" fill="none" xmlns="http://www.w3.org/2000/svg">
<path d="M39.1672 28.6265L41.0681 22.977L36.4846 19.9035H42.0985L44.106 13.8454L46.1491 19.9035H51.7274L47.1439 22.977L49.0804 28.6265L44.106 25.02L39.1672 28.6265Z" fill="#F4C300"/>
<path d="M60.7416 28.6265L62.6425 22.977L58.059 19.9035H63.6729L65.6804 13.8454L67.7234 19.9035H73.3017L68.7183 22.977L70.6547 28.6265L65.6804 25.02L60.7416 28.6265Z" fill="#F4C300"/>
<path d="M82.316 28.6265L84.2169 22.977L79.6334 19.9035H85.2473L87.2548 13.8454L89.2978 19.9035H94.8762L90.2927 22.977L92.2291 28.6265L87.2548 25.02L82.316 28.6265Z" fill="#F4C300"/>
<path d="M103.89 28.6265L105.791 22.977L101.208 19.9035H106.822L108.829 13.8454L110.872 19.9035H116.451L111.867 22.977L113.803 28.6265L108.829 25.02L103.89 28.6265Z" fill="#F4C300"/>
<path d="M125.465 28.6265L127.366 22.977L122.782 19.9035H128.396L130.404 13.8454L132.447 19.9035H138.025L133.442 22.977L135.378 28.6265L130.404 25.02L125.465 28.6265Z" fill="#F4C300"/>
<g clip-path="url(#clip0_145_950)">
<path d="M8.90415 19.1094C9.7197 19.7025 11.6474 20.9629 12.0181 21.4078C12.3888 21.8526 12.0181 22.4458 12.0181 22.4458L12.6112 22.6682C12.7595 22.3716 13.575 21.3336 14.094 20.6664C14.613 20.1474 14.9837 19.0353 14.9837 18.2939C15.0579 15.7731 11.7215 14.5868 10.1645 13.1781C9.42313 12.5108 10.0163 12.066 10.0163 12.066L9.49727 11.6953C7.56961 13.9937 5.49366 16.7369 8.90415 19.1094ZM10.6094 10.8056C12.5371 12.5108 15.8734 14.2902 16.0958 15.4024C16.3924 16.8852 15.7251 17.7007 15.7251 17.7007L16.0958 17.9973C16.3182 17.7007 16.5407 17.4042 16.7631 17.1076C17.6528 15.9213 18.4683 14.7351 19.2839 13.5488C21.2116 10.8056 20.4701 8.21067 17.5786 6.13472C16.0958 5.09675 14.613 3.91049 13.1302 2.87251C12.3146 2.1311 12.8336 0.796564 12.8336 0.796564L12.4629 0.5C12.4629 0.5 9.27485 4.35533 8.97829 5.9123C8.75586 7.39512 8.68172 9.10036 10.6094 10.8056ZM19.5805 23.7061H5.49366L4.90053 25.3373H8.75586L9.49727 27.7098H15.7251L16.3924 25.3373H20.0994L19.5805 23.7061ZM8.08859 35.0497C8.08859 34.0118 7.64375 33.4186 6.60577 33.1221C7.34718 32.7514 7.71789 32.0099 7.71789 31.1944C7.71789 29.6374 6.23507 29.1184 4.60396 29.1184H1.04519V37.4222H5.12295C6.67991 37.4222 8.08859 36.6808 8.08859 35.0497ZM2.82458 30.7495H4.60396C5.27123 30.7495 5.9385 30.8978 5.9385 31.6392C5.9385 32.3065 5.41952 32.5289 4.75225 32.5289H2.82458V30.7495ZM2.75044 35.8653V34.0118H4.90053C6.16093 34.0118 6.30921 34.3083 6.30921 34.9756C6.30921 35.6429 5.64194 35.8653 4.82639 35.8653H2.75044ZM25.4376 36.5325H25.2893L25.141 36.9774C25.0669 37.1257 25.0669 37.1998 25.0669 37.274C25.0669 37.1998 24.9928 37.0515 24.9928 36.9774L24.8445 36.5325H24.6962L24.622 37.4964H24.6962V37.1257C24.6962 36.9774 24.6962 36.8291 24.6962 36.6808C24.6962 36.8291 24.7703 36.9033 24.7703 37.0515L24.9186 37.4964H24.9928L25.141 37.0515C25.2152 36.9033 25.2152 36.8291 25.2893 36.6808C25.2893 36.8291 25.2893 36.9774 25.2893 37.1257V37.5705H25.4376V36.5325ZM16.9114 37.4222H20.9891C22.5461 37.4222 23.9548 36.6808 23.9548 35.0497C23.9548 34.0118 23.5099 33.4186 22.472 33.1221C23.2134 32.7514 23.5841 32.0099 23.5841 31.1944C23.5841 29.6374 22.1013 29.1184 20.4701 29.1184H16.9114V37.4222ZM18.6908 30.7495H20.4701C21.1374 30.7495 21.8047 30.8978 21.8047 31.6392C21.8047 32.3065 21.2857 32.5289 20.6184 32.5289H18.6908V30.7495ZM18.6166 34.0859H20.7667C22.0271 34.0859 22.1754 34.3825 22.1754 35.0497C22.1754 35.717 21.5081 35.9394 20.6926 35.9394H18.6166V34.0859ZM24.2513 36.9774C24.1031 36.9033 24.1031 36.9033 24.1031 36.8291C24.1031 36.755 24.1772 36.6808 24.2513 36.6808C24.3255 36.6808 24.3996 36.6808 24.3996 36.755V36.6808C24.3255 36.6808 24.3255 36.6067 24.1772 36.6067C24.0289 36.6067 23.8806 36.6808 23.8806 36.8291C23.8806 36.9774 23.9548 37.0515 24.1031 37.1257C24.2513 37.1998 24.2513 37.1998 24.2513 37.3481C24.2513 37.4222 24.1772 37.4964 24.0289 37.4964C23.9548 37.4964 23.8806 37.4964 23.8065 37.4222V37.4964C23.8806 37.4964 23.9548 37.5705 24.0289 37.5705C24.2513 37.5705 24.3255 37.4222 24.3255 37.274C24.4738 37.1257 24.3996 36.9774 24.2513 36.9774ZM14.613 33.1221C15.3544 32.7514 15.7251 32.0099 15.7251 31.1944C15.7251 29.6374 14.2423 29.1184 12.6112 29.1184H9.05243V37.4222H13.1302C14.6871 37.4222 16.0958 36.6808 16.0958 35.0497C16.0958 34.0118 15.651 33.4186 14.613 33.1221ZM10.7577 30.7495H12.5371C13.2043 30.7495 13.8716 30.8978 13.8716 31.6392C13.8716 32.3065 13.3526 32.5289 12.6853 32.5289H10.7577V30.7495ZM12.8336 35.8653H10.7577V34.0118H12.9078C14.1682 34.0118 14.3164 34.3083 14.3164 34.9756C14.2423 35.717 13.575 35.8653 12.8336 35.8653ZM18.5425 39.1275H16.7631V39.3499H17.5786V41.5H17.8011V39.3499H18.6166V39.1275H18.5425ZM13.8716 41.2034C13.7233 41.2034 13.6492 41.1293 13.6492 40.981V39.943H14.094V39.7948H13.6492V39.3499H13.5009V39.7948H13.1302V39.943H13.5009V40.981C13.5009 41.2034 13.6492 41.3517 13.9457 41.3517C14.0199 41.3517 14.1682 41.3517 14.2423 41.2776V41.1293C14.094 41.2034 13.9457 41.2034 13.8716 41.2034ZM23.7324 41.2034C23.5841 41.2034 23.4358 41.1293 23.4358 40.981V39.8689H23.9548V39.6465H23.4358V39.1275H23.2134V39.6465H22.7685V39.8689H23.2134V40.981C23.2134 41.2034 23.3616 41.4259 23.7324 41.4259C23.8065 41.4259 23.9548 41.4259 24.0289 41.3517V41.1293C23.8806 41.2034 23.8065 41.2034 23.7324 41.2034ZM21.2116 39.7206H20.9891V40.5362C20.9891 40.981 20.6926 41.2034 20.3219 41.2034C19.9512 41.2034 19.877 40.9069 19.877 40.6844V39.7206H19.6546V40.7586C19.6546 41.1293 19.8029 41.5 20.396 41.5C20.6926 41.5 20.9891 41.3517 21.0633 41.1293C21.0633 41.1293 21.0633 41.2776 21.0633 41.4259H21.2857C21.2857 41.3517 21.2857 41.0552 21.2857 40.981V39.7206H21.2116ZM18.6908 40.0172C18.6908 40.0172 18.6908 39.8689 18.6908 39.7206H18.4683C18.4683 39.7948 18.4683 40.0913 18.4683 40.1655V41.3517H18.6908V40.462C18.6908 40.1655 18.9132 39.8689 19.2839 39.8689H19.358V39.6465C19.2839 39.6465 19.2839 39.6465 19.2098 39.6465C19.0615 39.6465 18.839 39.7948 18.6908 40.0172ZM12.7595 39.0533C12.6853 39.0533 12.6112 39.1275 12.6112 39.2016C12.6112 39.2758 12.6853 39.3499 12.7595 39.3499C12.8336 39.3499 12.9078 39.2758 12.9078 39.2016C12.9078 39.1275 12.8336 39.0533 12.7595 39.0533ZM15.4286 39.7206C15.2061 39.7206 14.9837 39.8689 14.9096 40.0172V38.7568H14.6871V41.2776H14.9096V40.5362C14.9096 40.0913 15.132 39.8689 15.4286 39.8689C15.7251 39.8689 15.7993 40.0913 15.7993 40.3879V41.2776H16.0217V40.3879C16.0217 40.0913 15.9475 39.7206 15.4286 39.7206ZM21.6564 40.0913C21.6564 39.943 21.8788 39.7948 22.0271 39.7948C22.2495 39.7948 22.3978 39.8689 22.472 40.0172L22.6944 39.8689C22.5461 39.6465 22.3237 39.5723 22.0271 39.5723C21.7305 39.5723 21.3598 39.7206 21.3598 40.0913C21.3598 40.7586 22.472 40.3879 22.472 40.9069C22.472 41.1293 22.2495 41.2034 22.0271 41.2034C21.8047 41.2034 21.5823 41.1293 21.434 40.9069L21.2116 41.0552C21.3598 41.2776 21.6564 41.4259 21.953 41.4259C22.3237 41.4259 22.6202 41.2776 22.6202 40.9069C22.7685 40.2396 21.6564 40.5362 21.6564 40.0913ZM7.94031 41.2034C7.79203 41.2034 7.71789 41.1293 7.71789 40.981V39.8689H8.23688V39.6465H7.64375V39.1275H7.42132V39.6465H7.05062V39.8689H7.42132V40.981C7.42132 41.2034 7.56961 41.4259 7.86617 41.4259C7.94031 41.4259 8.08859 41.4259 8.16273 41.3517V41.1293C8.08859 41.2034 8.01445 41.2034 7.94031 41.2034ZM6.23507 39.943C6.23507 39.943 6.23507 39.7948 6.23507 39.6465H6.01264C6.01264 39.7206 6.01264 40.0172 6.01264 40.0913V41.2776H6.23507V40.3879C6.23507 40.0913 6.38335 39.7948 6.8282 39.7948H6.90234V39.5723C6.8282 39.5723 6.8282 39.5723 6.75405 39.5723C6.53163 39.6465 6.38335 39.7206 6.23507 39.943ZM11.5732 41.2034L10.906 39.1275H10.6094L9.94212 41.2034L9.34899 39.1275H9.12657L9.86798 41.4259H10.1645L10.8318 39.3499L11.4991 41.4259H11.7956L12.5371 39.1275H12.3146L11.5732 41.2034ZM5.49366 40.2396C5.49366 39.7948 5.19709 39.6465 4.82639 39.6465C4.60396 39.6465 4.3074 39.7206 4.15912 39.8689L4.3074 40.0172C4.45568 39.8689 4.60396 39.7948 4.82639 39.7948C5.12295 39.7948 5.34537 39.943 5.34537 40.2396V40.3137H5.04881C4.67811 40.3137 4.08498 40.3879 4.08498 40.9069C4.08498 41.2776 4.38154 41.4259 4.67811 41.4259C4.97467 41.4259 5.12295 41.3517 5.27123 41.1293C5.27123 41.2034 5.27123 41.3517 5.27123 41.4259H5.49366C5.49366 41.2034 5.49366 41.0552 5.49366 40.6844V40.2396ZM5.34537 40.6103C5.34537 40.9069 5.19709 41.2034 4.75225 41.2034C4.52982 41.2034 4.38154 41.1293 4.38154 40.9069C4.38154 40.6103 4.75225 40.5362 5.12295 40.5362H5.34537V40.6103ZM1.26762 39.6465C1.26762 39.3499 1.56418 39.2016 1.86075 39.2016C2.08317 39.2016 2.30559 39.2758 2.37973 39.424L2.60216 39.2758C2.37973 39.0533 2.15731 38.9792 1.86075 38.9792C1.4159 38.9792 0.971053 39.2016 0.971053 39.6465C0.971053 40.5362 2.37973 40.1655 2.37973 40.8327C2.37973 41.1293 2.08317 41.2776 1.7866 41.2776C1.49004 41.2776 1.26762 41.1293 1.19348 40.981L0.896912 41.1293C1.11933 41.3517 1.4159 41.5 1.7866 41.5C2.23145 41.5 2.6763 41.2776 2.6763 40.8327C2.6763 39.943 1.26762 40.2396 1.26762 39.6465ZM3.56599 41.2034C3.41771 41.2034 3.34357 41.1293 3.34357 40.981V39.8689H3.86255V39.6465H3.26943V39.1275H3.047V39.6465H2.6763V39.8689H3.047V40.981C3.047 41.2034 3.19528 41.4259 3.49185 41.4259C3.56599 41.4259 3.71427 41.4259 3.78841 41.3517V41.1293C3.71427 41.2034 3.64013 41.2034 3.56599 41.2034ZM12.6853 41.3517H12.9078V39.7948H12.6853V41.3517Z" fill="white"/>
</g>
<defs>
<clipPath id="clip0_145_950">
<rect width="24.6148" height="41" fill="white" transform="translate(0.896912 0.5)"/>
</clipPath>
</defs>
</svg>
