<svg width="22" height="16" viewBox="0 0 22 16" fill="none" xmlns="http://www.w3.org/2000/svg">
<path id="icon" d="M10.9742 15.9909C7.72578 15.9909 4.47734 15.9909 1.22031 15.9909C0.275 15.9909 0 15.701 0 14.6954C0 10.2106 0 5.72593 0 1.24122C0 0.308041 0.292188 0 1.18594 0C7.72578 0 14.2742 0 20.8141 0C21.7078 0 22 0.308041 22 1.25028C22 5.75311 22 10.2469 22 14.7497C22 15.6829 21.7078 16 20.8141 16C17.5398 15.9909 14.257 15.9909 10.9742 15.9909ZM7.69141 8.60702C7.53672 8.73386 7.41641 8.84258 7.2875 8.93318C6.65156 9.42242 6.00703 9.9026 5.37969 10.4009C4.16797 11.3613 2.95625 12.3307 1.75312 13.2911C1.71016 13.3273 1.66719 13.3635 1.61562 13.3998C1.36641 13.6082 1.27187 13.8709 1.48672 14.1427C1.68437 14.3964 1.91641 14.3601 2.16563 14.1699C4.15938 12.6478 6.17031 11.1438 8.15547 9.62174C8.44766 9.39524 8.62813 9.41336 8.89453 9.64892C9.40156 10.111 9.93437 10.5459 10.4672 10.9807C10.8711 11.316 11.1031 11.316 11.507 10.9807C12.0398 10.5459 12.5727 10.111 13.0797 9.64892C13.3375 9.41336 13.5266 9.38618 13.8188 9.61268C14.8586 10.419 15.9156 11.1801 16.9641 11.9683C17.9438 12.7022 18.9148 13.4451 19.8945 14.188C20.0922 14.342 20.2898 14.3873 20.4617 14.1699C20.6422 13.9434 20.6336 13.6988 20.4445 13.4723C20.3844 13.4088 20.3156 13.3545 20.2469 13.3001C18.382 11.8233 16.5086 10.3556 14.6437 8.88788C14.532 8.79728 14.4289 8.70668 14.2656 8.57078C14.4117 8.44394 14.5234 8.35334 14.6352 8.25368C16.5516 6.43262 18.468 4.62061 20.3758 2.79049C20.5133 2.66365 20.6938 2.51869 20.7195 2.34655C20.7539 2.13817 20.7195 1.84824 20.5992 1.70328C20.5047 1.60362 20.2211 1.6761 20.0234 1.70328C19.9547 1.71234 19.8859 1.812 19.8258 1.86636C17.0156 4.46659 14.2055 7.05776 11.3953 9.66704C11.1117 9.92978 10.8883 9.97508 10.5789 9.69422C8.67969 7.91846 6.77187 6.16988 4.86406 4.40317C3.95312 3.56059 3.01641 2.69083 2.07969 1.83012C1.84766 1.62174 1.58125 1.45866 1.32344 1.74858C1.08281 2.02944 1.16016 2.33749 1.38359 2.60023C1.43516 2.65459 1.48672 2.70895 1.53828 2.75425C2.79297 3.94111 4.05625 5.13703 5.31094 6.3239C6.09297 7.07588 6.875 7.82786 7.69141 8.60702Z" fill="#262626"/>
</svg>
