<svg width="41" height="41" viewBox="0 0 41 41" fill="none" xmlns="http://www.w3.org/2000/svg">
<path d="M38.1621 20.9219C38.1621 19.6024 38.0437 18.3337 37.8238 17.1157H20.2984V24.3221H30.3129C29.8731 26.6397 28.5536 28.602 26.5744 29.9215V34.6073H32.6135C36.1321 31.3594 38.1621 26.5889 38.1621 20.9219Z" fill="#262626"/>
<path d="M20.2985 39.1069C25.3226 39.1069 29.5348 37.4491 32.6136 34.6071L26.5745 29.9213C24.9167 31.0378 22.8021 31.7144 20.2985 31.7144C15.4604 31.7144 11.3497 28.4495 9.87798 24.0513H3.68658V28.8555C6.74845 34.9285 13.0244 39.1069 20.2985 39.1069Z" fill="#262626"/>
<path d="M9.8779 24.0345C9.50574 22.918 9.28583 21.7339 9.28583 20.499C9.28583 19.2641 9.50574 18.0799 9.8779 16.9635V12.1592H3.6865C2.41777 14.6628 1.69037 17.4879 1.69037 20.499C1.69037 23.5101 2.41777 26.3352 3.6865 28.8388L8.50768 25.0833L9.8779 24.0345Z" fill="#262626"/>
<path d="M20.2985 9.30052C23.0389 9.30052 25.4749 10.2478 27.4203 12.0748L32.7489 6.74614C29.5179 3.73501 25.3227 1.89111 20.2985 1.89111C13.0244 1.89111 6.74845 6.06948 3.68658 12.1594L9.87798 16.9637C11.3497 12.5654 15.4604 9.30052 20.2985 9.30052Z" fill="#262626"/>
</svg>
