<svg width="32" height="33" viewBox="0 0 32 33" fill="none" xmlns="http://www.w3.org/2000/svg">
<g id="Google__G__Logo 1">
<path id="Vector" d="M29.2709 16.8244C29.2709 15.8123 29.1801 14.8392 29.0114 13.9051H15.5696V19.4323H23.2507C22.9133 21.2098 21.9013 22.7149 20.3832 23.7269V27.3209H25.0152C27.7139 24.8297 29.2709 21.1709 29.2709 16.8244Z" fill="#4285F4"/>
<path id="Vector_2" d="M15.5696 30.7721C19.4231 30.7721 22.6538 29.5006 25.0152 27.3209L20.3832 23.7269C19.1117 24.5832 17.4899 25.1022 15.5696 25.1022C11.8589 25.1022 8.70602 22.5981 7.57723 19.2247H2.82849V22.9095C5.17691 27.5674 9.99052 30.7721 15.5696 30.7721Z" fill="#34A853"/>
<path id="Vector_3" d="M7.57723 19.2117C7.29179 18.3554 7.12312 17.4472 7.12312 16.5C7.12312 15.5529 7.29179 14.6446 7.57723 13.7883V10.1035H2.8285C1.8554 12.0237 1.29749 14.1905 1.29749 16.5C1.29749 18.8095 1.8554 20.9763 2.8285 22.8965L6.52628 20.0161L7.57723 19.2117Z" fill="#F4C300"/>
<path id="Vector_4" d="M15.5696 7.91076C17.6715 7.91076 19.5399 8.63734 21.032 10.0386L25.119 5.95158C22.6408 3.64208 19.4231 2.22784 15.5696 2.22784C9.99052 2.22784 5.17691 5.43259 2.82849 10.1035L7.57723 13.7883C8.70602 10.4149 11.8589 7.91076 15.5696 7.91076Z" fill="#EA4335"/>
</g>
</svg>
