<svg width="156" height="32" viewBox="0 0 156 32" fill="none" xmlns="http://www.w3.org/2000/svg">
<path d="M57.0391 23.3669L58.94 17.7174L54.3565 14.644H59.9704L61.9779 8.58588L64.0209 14.644H69.5993L65.0158 17.7174L66.9522 23.3669L61.9779 19.7605L57.0391 23.3669Z" fill="#F4C300"/>
<path d="M78.6135 23.3669L80.5144 17.7174L75.9309 14.644H81.5448L83.5522 8.58588L85.5953 14.644H91.1736L86.5901 17.7174L88.5266 23.3669L83.5522 19.7605L78.6135 23.3669Z" fill="#F4C300"/>
<path d="M100.188 23.3669L102.089 17.7174L97.5053 14.644H103.119L105.127 8.58588L107.17 14.644H112.748L108.165 17.7174L110.101 23.3669L105.127 19.7605L100.188 23.3669Z" fill="#F4C300"/>
<path d="M121.762 23.3669L123.663 17.7174L119.08 14.644H124.694L126.701 8.58588L128.744 14.644H134.322L129.739 17.7174L131.675 23.3669L126.701 19.7605L121.762 23.3669Z" fill="#F4C300"/>
<path d="M143.337 23.3669L145.238 17.7174L140.654 14.644H146.268L148.276 8.58588L150.319 14.644H155.897L151.314 17.7174L153.25 23.3669L148.276 19.7605L143.337 23.3669Z" fill="#F4C300"/>
<path d="M30.2459 16.3244C30.2459 15.3123 30.155 14.3392 29.9864 13.4051H16.5446V18.9323H24.2256C23.8883 20.7098 22.8762 22.2149 21.3582 23.2269V26.8209H25.9902C28.6889 24.3297 30.2459 20.6709 30.2459 16.3244Z" fill="#4285F4"/>
<path d="M16.5446 30.2721C20.3981 30.2721 23.6288 29.0006 25.9902 26.8209L21.3582 23.2269C20.0867 24.0832 18.4648 24.6022 16.5446 24.6022C12.8338 24.6022 9.68098 22.0981 8.55219 18.7247H3.80345V22.4095C6.15187 27.0674 10.9655 30.2721 16.5446 30.2721Z" fill="#34A853"/>
<path d="M8.55219 18.7117C8.26675 17.8554 8.09808 16.9472 8.09808 16C8.09808 15.0529 8.26675 14.1446 8.55219 13.2883V9.60349H3.80346C2.83036 11.5237 2.27245 13.6905 2.27245 16C2.27245 18.3095 2.83036 20.4763 3.80346 22.3965L7.50124 19.5161L8.55219 18.7117Z" fill="#F4C300"/>
<path d="M16.5446 7.41076C18.6465 7.41076 20.5148 8.13734 22.0069 9.5386L26.094 5.45158C23.6158 3.14208 20.3981 1.72784 16.5446 1.72784C10.9655 1.72784 6.15187 4.93259 3.80345 9.60348L8.55219 13.2883C9.68098 9.91487 12.8338 7.41076 16.5446 7.41076Z" fill="#EA4335"/>
</svg>
