<?xml version="1.0" encoding="utf-8"?>
<!-- Generator: Adobe Illustrator 26.0.2, SVG Export Plug-In . SVG Version: 6.00 Build 0)  -->
<svg version="1.1" id="Layer_1" xmlns="http://www.w3.org/2000/svg" xmlns:xlink="http://www.w3.org/1999/xlink" x="0px" y="0px"
	 viewBox="0 0 1157.4 490.8" style="enable-background:new 0 0 1157.4 490.8;" xml:space="preserve">
<style type="text/css">
	.st0{fill:#262626;}
</style>
<g>
	<path class="st0" d="M846.3,245c-2.1,1.1-3.5,2.5-4.3,4s-1.2,3.3-1.2,5.2c0,2.7,0.9,4.9,2.6,6.8c1.7,1.8,4.2,2.7,7.5,2.7
		c2.6,0,4.9-0.5,7.1-1.6s4-2.5,5.5-4.2s2.7-3.8,3.5-6.2c0.9-2.4,1.3-4.7,1.3-7.2v-3.2c-5.4,0-9.9,0.3-13.4,1
		C851.2,242.9,848.4,243.8,846.3,245z"/>
	<path class="st0" d="M310.4,208.5c-2.4,0-4.8,0.5-7.1,1.4s-4.3,2.4-6.2,4.4c-1.8,2-3.3,4.6-4.3,7.8c-1.1,3.2-1.6,7-1.6,11.4
		c0,9.3,1.5,16.1,4.4,20.4c3,4.3,7.7,6.5,14.1,6.5c5.7,0,10.2-2.2,13.6-6.7c3.4-4.4,5.2-10.9,5.2-19.4c0-8.6-1.4-15.1-4.2-19.4
		C321.5,210.7,316.9,208.5,310.4,208.5z"/>
	<path class="st0" d="M587.3,204.5c-4.4,0-8.2,1.6-11.1,4.8c-3,3.2-4.7,7.5-5.3,12.7h30.5c0.3-5.8-0.9-10.2-3.5-13.1
		C595.3,205.9,591.8,204.5,587.3,204.5z"/>
	<path class="st0" d="M1098.9,92.7c-28.6-10.5-60.8-11-90.9-13.6c-33.8-2.9-69.2-5.6-102.9-8.4c-70.3-6-139.9-10.8-210.2-16.9
		C555.1,41.7,415.3,29.4,275.5,17.6c-36.3-3.1-72.6-6.3-108.9-9.2C137.7,5.5,85.5,0,77.9,0C32.5,0.2,9.8,30,2.4,67.5
		c-2.9,14.7-3,29.8-1.2,44.7c6.5,54.1,12,108.5,20.5,162.2c6.2,38.8,18.1,77.1,53.1,99.2c33.7,21.2,104.5,16.5,153.3,16.6
		c56.6,0,113.3,0,169.9,0.1c116.1,0,232.2,0,348.3-0.2c15.5,0,58.3,0.2,58.3,0.2s7.2,5.4,13.7,11.6c16.7,15.8,34.6,30.3,53.7,43
		c33.6,22.2,83.3,49.5,125,45.7c-33.4-24.1-52.2-58.8-55.1-99.7c59.1-1.3,146.1,7.4,183.4-37.9c33.8-41.1,30.2-105.8,31.9-155.8
		C1158.9,152,1144.5,109.3,1098.9,92.7z M243.3,284.9h-31.5v-56.8h-49.9v56.8h-31.5V148.5h31.5v52.3h49.9v-52.3h31.5L243.3,284.9
		L243.3,284.9z M356.5,254.8c-2.7,6.7-6.4,12.5-11.1,17.3c-4.7,4.8-10.3,8.5-16.8,11.1s-13.5,3.9-21,3.9c-7.3,0-13.9-0.9-19.8-2.8
		s-11-4.8-15.3-8.9c-4.2-4-7.5-9.2-9.8-15.6c-2.3-6.3-3.4-13.9-3.4-22.8c0-8.2,1.3-15.7,3.9-22.4s6.3-12.5,11.1-17.3
		s10.4-8.5,16.9-11.1s13.5-3.9,21.2-3.9c15.4,0,27.2,4.2,35.6,12.5c8.3,8.4,12.5,20.9,12.5,37.8C360.5,240.6,359.2,248,356.5,254.8z
		 M524.8,284.9h-30.9v-63c0-4.3-0.6-7.7-1.9-10.2s-3.6-3.7-7.1-3.7c-2.3,0-4.6,0.7-6.9,2.1s-4.4,3.4-6.3,6s-3.4,5.6-4.5,9.1
		s-1.7,7.3-1.7,11.3v48.4H435v-63.2c0-4.1-0.6-7.4-1.8-9.9c-1.2-2.6-3.7-3.8-7.3-3.8c-2.4,0-4.9,0.7-7.3,2.2s-4.6,3.5-6.4,6.1
		s-3.3,5.6-4.5,9s-1.7,7.2-1.7,11.2v48.4h-30.5V184.5H404c0,1.9-0.1,4.3-0.3,7.3s-0.5,5.8-0.9,8.5h0.2c3.1-5.6,7.5-10,13.1-13.2
		s12-4.8,19.2-4.8c7.7,0,13.9,1.7,18.4,5.1s7.6,7.7,9.2,12.9c2.7-4.9,6.7-9.2,12.1-12.7s11.9-5.3,19.5-5.3c9.8,0,17.3,2.8,22.5,8.4
		c5.2,5.6,7.8,14.1,7.8,25.6L524.8,284.9L524.8,284.9z M631.6,235.3c-0.2,2.2-0.4,4.6-0.7,7.2h-60c0.1,6.6,2.2,11.7,6.3,15.4
		c4.1,3.6,10.3,5.5,18.6,5.5c4.9,0,9.8-0.5,14.8-1.5s9.9-2.6,14.8-4.7l3,23.2c-5.8,2.3-12,4-18.5,5.1s-12.9,1.7-19.1,1.7
		c-16.5,0-29.1-4.1-37.8-12.3c-8.8-8.2-13.2-21.2-13.2-39c0-7.7,1-14.8,3.1-21.4s5.2-12.3,9.3-17.1s9.2-8.5,15.2-11.2s12.9-4,20.8-4
		c7.6,0,14.1,1.2,19.6,3.6s10.1,5.7,13.7,9.9c3.6,4.2,6.2,9.1,7.9,14.7c1.7,5.7,2.5,11.8,2.5,18.4C632,230.9,631.8,233,631.6,235.3z
		 M727.6,259.7c-2.6,5.6-6.3,10.4-11.1,14.5s-10.5,7.3-17.1,9.6c-6.6,2.3-13.9,3.4-22,3.4c-6.5,0-12.3-0.3-17.6-0.9
		s-10.2-1.5-14.9-2.7l3-29.9c4.4,1.9,9.2,3.4,14.2,4.4c5.1,1.1,10.4,1.6,16.1,1.6c5.1,0,9.5-1.1,13.1-3.3c3.6-2.2,5.5-5.8,5.5-10.8
		c0-3.9-1.3-6.9-4-9.1s-6.1-4.1-10.1-5.8s-8.4-3.4-13.1-5.2c-4.7-1.7-9.1-4.1-13.1-7.1s-7.4-6.8-10.1-11.4c-2.7-4.6-4-10.8-4-18.5
		c0-6.5,1.2-12.3,3.6-17.5c2.4-5.2,5.9-9.7,10.5-13.4c4.6-3.8,10.2-6.7,16.9-8.7s14.3-3,22.9-3c3.5,0,7.5,0.2,12.1,0.6
		s8.8,1.1,12.7,2l-2.8,27.5c-7.7-2.7-15.5-4-23.4-4c-6.5,0-11.2,1.2-14.2,3.5c-3.4,2.7-4.9,6.3-4.5,10.9c0.2,2.6,1.6,5,3.7,6.6
		c2.8,2.3,6.4,4.4,10.7,6.3c4.1,1.8,8.5,3.7,13.3,5.6s9.2,4.3,13.3,7.4c4.1,3,7.5,6.9,10.3,11.5s4.1,10.5,4.1,17.7
		C731.5,248.1,730.2,254.1,727.6,259.7z M791.4,286.3c-4,0.5-7.9,0.8-11.5,0.8c-5.8,0-10.6-0.5-14.5-1.6s-7.1-2.9-9.5-5.4
		s-4.1-5.8-5.1-9.9s-1.5-9.3-1.5-15.5V208h-15.1v-23.6h15.1v-29.7l30.9-8.3v38h21.6V208h-21.6v39.6c0,5.1,0.7,8.7,2.2,10.7
		s4.2,3,8.1,3c1.9,0,3.7-0.1,5.4-0.4s3.4-0.6,5.2-1l1.8,24C799.2,285,795.5,285.7,791.4,286.3z M871,284.9c0-2.4,0-4.9,0.1-7.5
		s0.3-5.1,0.7-7.7h-0.2c-2.4,5.3-6.4,9.5-11.9,12.6c-5.5,3.2-11.8,4.7-18.8,4.7c-4.8,0-9.1-0.8-12.7-2.3s-6.7-3.7-9.1-6.4
		s-4.3-5.8-5.6-9.4s-1.9-7.4-1.9-11.6c0-6.3,1.4-11.7,4.2-16.3c2.8-4.5,6.7-8.2,11.7-11s10.9-4.9,17.9-6.3c6.9-1.3,14.5-2,22.7-2v-4
		c0-4.2-1.3-7.3-3.9-9.3s-7.3-3-14-3c-4.4,0-9.2,0.6-14.1,1.9c-5,1.3-9.5,2.9-13.5,4.7l-5.3-24c5.3-1.9,11.3-3.4,18.1-4.5
		s13.5-1.7,20.1-1.7c8.5,0,15.5,0.8,21.1,2.3c5.6,1.6,10.1,3.8,13.4,6.9c3.4,3,5.7,6.7,7.1,11c1.3,4.3,2,9.2,2,14.7V261
		c0,3.6,0.1,7.5,0.2,11.7s0.3,8.2,0.6,12.1L871,284.9L871,284.9z M975.6,212.5c-8.5-1.9-14.9-0.4-19.2,4.5s-6.5,13.7-6.5,26.4v41.4
		h-30.5V184.5h28.5c0,2.2-0.1,4.9-0.3,8.2s-0.6,6.5-1.1,9.6h0.4c2.7-6.1,6.4-11,11.3-14.9c4.8-3.9,11.1-5.7,18.8-5.3L975.6,212.5z
		 M1051.2,267c-2.2,4.2-5.2,7.8-9.2,10.8s-8.8,5.3-14.3,6.9c-5.6,1.6-11.8,2.4-18.7,2.4c-8.1,0-15.5-0.9-22.2-2.8l1.6-25
		c6.2,2.7,13.2,4,21,4c3.9,0,6.9-0.7,9.1-2.1s3.2-3.3,3.2-5.8c0-2.4-0.9-4.3-2.7-5.8c-1.8-1.4-4.1-2.7-6.9-3.7
		c-2.8-1.1-5.7-2.2-8.9-3.4s-6.1-2.9-8.9-5c-2.8-2.2-5-4.9-6.9-8.4c-1.8-3.4-2.7-7.9-2.7-13.4c0-4.6,0.9-8.9,2.6-13
		s4.4-7.7,8.1-10.7c3.6-3,8.2-5.4,13.8-7.2c5.6-1.7,12.2-2.6,19.9-2.6c2.7,0,5.6,0.2,8.7,0.5s6.1,0.8,8.9,1.3l-1,24
		c-2.6-0.9-5.4-1.6-8.4-2s-6-0.6-9-0.6c-3.9,0-6.8,0.7-8.7,2.1c-1.9,1.4-2.8,3.3-2.8,5.6c0,2.2,0.9,3.9,2.8,5.3
		c1.9,1.3,4.2,2.6,7,3.8c2.8,1.2,5.8,2.5,9,3.8s6.2,3.1,9,5.3s5.1,4.9,7,8.4c1.9,3.4,2.8,7.8,2.8,13.2
		C1054.4,258,1053.3,262.7,1051.2,267z"/>
</g>
</svg>
