<svg width="20" height="30" viewBox="0 0 20 30" fill="none" xmlns="http://www.w3.org/2000/svg">
<path id="icon" fill-rule="evenodd" clip-rule="evenodd" d="M9.66665 0.5C4.29629 0.5 0 4.88917 0 10.3756C0 12.5702 1.22751 15.8621 3.98941 20.8784C5.83068 24.327 7.67195 27.1486 7.67195 27.1486L9.05291 29.1864L9.05295 29.1865C9.20637 29.3432 9.3598 29.5 9.66665 29.5C9.97351 29.5 10.127 29.3432 10.2804 29.1865L10.2804 29.1864L11.6614 27.1486C11.8148 26.9919 13.5026 24.1702 15.3439 20.8784C18.1058 15.8621 19.3333 12.5702 19.3333 10.3756C19.3333 4.88917 15.037 0.5 9.66665 0.5ZM5.40194 9.88234C5.40194 12.2706 7.27841 14.147 9.66664 14.147C12.0549 14.147 13.9313 12.2706 13.9313 9.88234C13.9313 7.49411 12.0549 5.61764 9.66664 5.61764C7.27841 5.61764 5.40194 7.49411 5.40194 9.88234Z" fill="#262626"/>
</svg>
