<svg width="238" height="31" viewBox="0 0 238 31" fill="none" xmlns="http://www.w3.org/2000/svg">
<g id="logo" clip-path="url(#clip0_604_329)">
<g id="Group">
<g id="Clip path group">
<mask id="mask0_604_329" style="mask-type:luminance" maskUnits="userSpaceOnUse" x="-1" y="0" width="240" height="31">
<g id="SVGID_2_">
<path id="Vector" d="M239 0.5H-1V30.5H239V0.5Z" fill="white"/>
</g>
</mask>
<g mask="url(#mask0_604_329)">
<path id="Vector_2" d="M223.779 30.5H239C234.921 21.3114 231.024 12.1227 227.128 2.87323C226.458 1.53448 225.423 0.682556 223.901 0.5L207.584 0.5C207.584 0.5 207.645 0.5 207.645 0.560852C210.385 1.89959 211.055 5.48986 209.107 7.86308C208.254 8.89757 207.463 9.8712 206.549 10.9057C200.826 17.4777 195.225 24.0497 189.807 30.5609H204.723C205.575 29.6481 217.569 15.8347 217.569 15.8347C217.569 15.8347 223.414 29.5872 223.779 30.5Z" fill="#101010"/>
</g>
</g>
<g id="Clip path group_2">
<mask id="mask1_604_329" style="mask-type:luminance" maskUnits="userSpaceOnUse" x="-1" y="0" width="240" height="31">
<g id="SVGID_2__2">
<path id="Vector_3" d="M239 0.5H-1V30.5H239V0.5Z" fill="white"/>
</g>
</mask>
<g mask="url(#mask1_604_329)">
<path id="Vector_4" d="M226.763 30.5H210.933L215.621 24.5974H226.763V30.5Z" fill="#101010"/>
</g>
</g>
<g id="Clip path group_3">
<mask id="mask2_604_329" style="mask-type:luminance" maskUnits="userSpaceOnUse" x="-1" y="0" width="240" height="31">
<g id="SVGID_2__3">
<path id="Vector_5" d="M239 0.5H-1V30.5H239V0.5Z" fill="white"/>
</g>
</mask>
<g mask="url(#mask2_604_329)">
<path id="Vector_6" d="M79.3653 30.5H94.586C90.5069 21.3114 86.6104 12.1227 82.7139 2.87323C82.0441 1.53448 81.0091 0.682556 79.4871 0.5L63.1705 0.5C63.1705 0.5 63.2314 0.5 63.2314 0.560852C65.9711 1.89959 66.6408 5.48986 64.6925 7.86308C63.8402 8.89757 63.0487 9.8712 62.1355 10.9057C56.4125 17.4777 50.8113 24.0497 45.3927 30.5609H60.309C61.1613 29.6481 73.1553 15.8347 73.1553 15.8347C73.1553 15.8347 78.9391 29.5872 79.3653 30.5Z" fill="#101010"/>
</g>
</g>
<g id="Clip path group_4">
<mask id="mask3_604_329" style="mask-type:luminance" maskUnits="userSpaceOnUse" x="-1" y="0" width="240" height="31">
<g id="SVGID_2__4">
<path id="Vector_7" d="M239 0.5H-1V30.5H239V0.5Z" fill="white"/>
</g>
</mask>
<g mask="url(#mask3_604_329)">
<path id="Vector_8" d="M82.2877 30.5H66.4581L71.207 24.5974H82.2877V30.5Z" fill="#101010"/>
</g>
</g>
</g>
<path id="Vector_9" d="M21.4657 12.9138H45.758C45.3318 14.9219 44.9056 16.93 44.5403 18.999C44.2359 20.5203 43.8706 21.9807 43.5662 23.502C43.4444 24.3539 43.14 25.2059 43.0182 26.0578C42.4703 28.5527 40.0959 30.5608 37.7214 30.5608H3.99237C1.61794 30.5608 -0.0258969 28.5527 0.522048 26.0578C0.704697 25.2059 0.948228 24.3539 1.06999 23.502C1.86147 19.9726 2.59206 16.5041 3.32266 12.9746H16.5342C15.9254 16.2606 15.3166 19.6684 14.7077 22.5892C14.7077 22.7109 14.7077 22.7718 14.586 22.8327C14.586 23.3803 15.0122 23.7454 15.6819 23.7454H28.8325C29.3805 23.7454 29.8067 23.4412 30.1111 23.0761C30.2328 22.8935 30.2329 22.7718 30.2329 22.5892C30.4764 21.4331 30.7808 20.216 31.0852 18.999H20.1872C20.5525 16.93 21.0396 14.9219 21.4657 12.9138Z" fill="#101010"/>
<path id="Vector_10" d="M48.376 0.5C48.0716 1.65619 47.828 2.81237 47.6454 3.90771C47.2801 5.85497 45.4536 5.97667 43.5053 5.97667H4.54036C4.54036 3.72515 3.56623 1.96045 0.522095 0.5H48.376Z" fill="#101010"/>
<path id="Vector_11" d="M135.986 27.0923C135.682 28.2485 135.438 29.4047 135.256 30.5H95.9254C96.4734 27.7617 97.0213 25.0233 97.6301 22.285C102.623 19.1815 107.615 16.0172 112.607 12.8529H133.247C127.463 16.4432 121.801 20.0335 116.078 23.6237H133.125C135.012 23.6846 136.412 25.2059 135.986 27.0923Z" fill="#101010"/>
<path id="Vector_12" d="M192.181 5.00304C190.72 12.001 189.137 18.999 187.737 25.9361C187.25 28.431 184.693 30.4391 182.318 30.4391H141.892C143.231 24.5365 144.449 18.6947 145.667 12.7921H164.784C164.784 12.8529 164.723 12.9746 164.723 13.0355C164.175 14.7394 163.566 16.4432 162.957 18.2079C162.775 18.6947 162.531 19.1815 162.349 19.6684C162.288 19.7901 162.166 19.9118 161.983 19.9726C161.374 20.2769 160.766 20.5811 160.218 20.8245C159.852 21.0071 159.609 21.2505 159.548 21.5548C159.304 22.1633 159.122 22.7718 158.878 23.4412C158.696 23.928 158.513 24.4148 158.33 24.9625C158.269 25.2059 158.391 25.3884 158.756 25.3884H165.21H171.664C172.212 25.3884 172.76 25.0842 172.881 24.6582C173.247 23.6237 173.612 22.6501 173.977 21.6156C174.099 21.3722 173.916 21.1288 173.551 21.1288C173.49 21.1288 173.368 21.1288 173.307 21.1288C172.942 21.068 172.699 20.8854 172.699 20.642C172.699 20.5203 172.699 20.3377 172.759 20.216C173.429 18.1471 174.099 16.1389 174.769 14.07C175.134 12.9746 175.499 11.9402 175.804 10.8448C176.047 9.93205 176.108 8.95842 175.865 8.04564C175.377 6.46349 174.342 5.36815 172.516 4.75963C171.116 4.27282 169.654 4.09026 168.193 4.09026C166.915 4.02941 165.636 4.09026 164.358 4.09026C164.297 4.09026 164.175 4.09026 164.114 4.09026C163.992 4.09026 163.871 4.21197 163.931 4.33367C163.931 4.39452 163.992 4.51623 164.053 4.57708C164.175 4.69878 164.297 4.75963 164.419 4.88134C165.271 5.55071 165.697 6.40264 165.88 7.31542H101.283C101.709 4.39452 101.222 2.20385 97.5084 0.439148H188.711C189.807 0.439148 190.963 0.986815 191.633 1.83874C192.303 2.75152 192.425 3.84686 192.181 5.00304Z" fill="#101010"/>
</g>
<defs>
<clipPath id="clip0_604_329">
<rect width="238" height="30" fill="white" transform="translate(0 0.5)"/>
</clipPath>
</defs>
</svg>
