<svg width="22" height="22" viewBox="0 0 22 22" fill="none" xmlns="http://www.w3.org/2000/svg">
<path id="icon" d="M0 2.7491C0 1.23081 1.23122 0 2.75 0H6.38632C7.73063 0 8.8779 0.971566 9.0989 2.29715L9.60659 5.34224C9.81574 6.59673 9.08086 7.8169 7.87393 8.21907L7.21111 8.43994C6.93419 8.53222 6.77761 8.82468 6.85442 9.10621L7.54418 11.6345C7.92464 13.0291 8.97714 14.1413 10.3489 14.5984L12.0269 15.1576C12.2622 15.236 12.5208 15.1472 12.6584 14.9409L13.4603 13.7385C14.1482 12.707 15.4416 12.2634 16.618 12.6554L20.1196 13.8222C21.2426 14.1964 22 15.247 22 16.4303V19.2509C22 20.7692 20.7688 22 19.25 22H17.05C7.63355 22 0 14.369 0 4.95561V2.7491Z" fill="#262626"/>
</svg>
